<?xml version="1.0" standalone="no"?>
<!DOCTYPE svg PUBLIC "-//W3C//DTD SVG 20010904//EN"
 "http://www.w3.org/TR/2001/REC-SVG-20010904/DTD/svg10.dtd">
<svg version="1.0" xmlns="http://www.w3.org/2000/svg"
 width="1024.000000pt" height="1024.000000pt" viewBox="0 0 1024.000000 1024.000000"
 preserveAspectRatio="xMidYMid meet">
<metadata>
Created by potrace 1.14, written by Peter Selinger 2001-2017
</metadata>
<g transform="translate(0.000000,1024.000000) scale(0.100000,-0.100000)"
fill="#000000" stroke="none">
<path d="M5097 10054 c-1 -2 -86 -5 -187 -8 -102 -3 -196 -8 -210 -10 -14 -3
-65 -7 -115 -11 -49 -4 -93 -9 -97 -11 -4 -3 -30 -5 -58 -6 -27 0 -48 -3 -46
-6 2 -4 -12 -8 -32 -9 -21 -1 -59 -5 -87 -9 -27 -4 -58 -8 -67 -8 -10 0 -18
-3 -18 -6 0 -3 -12 -7 -27 -9 -58 -6 -78 -9 -78 -11 0 -1 -12 -4 -26 -5 -15
-2 -46 -9 -70 -16 -55 -16 -46 -14 -99 -24 -48 -9 -56 -11 -67 -15 -5 -1 -11
-2 -15 -1 -5 0 -8 -2 -8 -7 0 -4 -14 -8 -30 -9 -16 -1 -51 -10 -77 -18 -27 -9
-57 -19 -68 -21 -11 -2 -21 -8 -23 -14 -2 -6 -8 -8 -12 -5 -5 3 -25 -1 -44 -9
-19 -8 -37 -12 -40 -8 -3 3 -6 -1 -6 -8 0 -7 -3 -11 -6 -8 -3 3 -35 -5 -72
-19 -37 -14 -73 -25 -79 -26 -7 0 -13 -3 -13 -7 0 -4 -7 -7 -15 -8 -8 -1 -22
-3 -30 -4 -8 -1 -15 -5 -15 -10 0 -5 -4 -7 -8 -4 -4 2 -29 -6 -55 -19 -26 -14
-47 -22 -47 -18 0 3 -8 -1 -18 -10 -10 -10 -22 -14 -25 -10 -4 3 -7 1 -7 -5 0
-7 -3 -11 -7 -10 -17 5 -310 -137 -415 -201 -37 -23 -72 -41 -78 -41 -5 0 -10
-5 -10 -11 0 -5 -4 -7 -10 -4 -5 3 -10 2 -10 -4 0 -5 -10 -13 -22 -17 -24 -7
-157 -90 -193 -120 -11 -9 -30 -21 -42 -27 -13 -5 -23 -14 -23 -19 0 -4 -5 -8
-11 -8 -7 0 -23 -12 -37 -27 -14 -16 -28 -27 -31 -25 -3 1 -14 -5 -23 -13 -10
-8 -18 -12 -18 -8 0 3 -14 -8 -30 -26 -17 -17 -34 -31 -40 -31 -5 0 -17 -8
-27 -19 -10 -10 -37 -32 -60 -48 -23 -17 -39 -33 -36 -37 3 -3 0 -6 -8 -6 -8
0 -30 -15 -49 -33 -19 -17 -55 -50 -80 -72 -25 -22 -44 -43 -43 -47 2 -5 -6
-8 -18 -8 -11 0 -18 -3 -16 -7 5 -10 -30 -43 -37 -36 -3 4 -6 -1 -6 -10 0 -10
-4 -17 -10 -17 -17 0 -100 -92 -93 -103 3 -5 1 -7 -5 -3 -6 3 -17 -3 -25 -14
-7 -11 -17 -17 -20 -13 -4 3 -7 1 -7 -6 0 -6 -28 -40 -63 -75 -35 -35 -76 -80
-92 -101 -17 -21 -47 -57 -68 -81 -21 -23 -37 -44 -35 -46 1 -2 -11 -18 -27
-37 -17 -18 -29 -38 -27 -43 1 -5 -1 -7 -6 -4 -5 3 -24 -15 -42 -40 -18 -25
-43 -57 -56 -71 -13 -14 -24 -32 -24 -38 0 -7 -7 -16 -16 -19 -9 -4 -14 -9
-11 -12 3 -3 -4 -17 -16 -31 -12 -13 -21 -28 -21 -31 1 -4 -7 -13 -17 -20 -11
-7 -19 -19 -19 -27 0 -7 -4 -15 -9 -17 -9 -4 -58 -79 -59 -92 0 -5 -6 -12 -14
-17 -7 -5 -13 -13 -13 -19 0 -6 -4 -14 -10 -18 -10 -7 -28 -35 -52 -84 -8 -15
-18 -30 -23 -33 -4 -3 -18 -26 -31 -53 -12 -26 -26 -49 -29 -52 -9 -6 -25 -52
-22 -63 1 -5 -1 -6 -6 -3 -5 3 -20 -18 -33 -47 -13 -29 -26 -54 -30 -57 -14
-12 -98 -194 -93 -201 3 -5 1 -9 -4 -9 -7 0 -30 -47 -41 -85 -2 -5 -12 -22
-22 -37 -22 -30 -24 -43 -7 -32 7 4 2 -7 -11 -24 -12 -18 -19 -36 -16 -42 3
-5 3 -10 -2 -10 -10 0 -33 -49 -33 -71 0 -10 -4 -19 -10 -21 -5 -1 -11 -15
-12 -30 -1 -16 -6 -28 -11 -28 -4 0 -7 -6 -6 -12 1 -7 -2 -24 -8 -38 -6 -14
-18 -42 -26 -63 -9 -20 -17 -41 -18 -45 -1 -4 -5 -18 -10 -30 -5 -13 -7 -28
-3 -33 3 -5 0 -9 -6 -9 -7 0 -10 -7 -6 -15 3 -8 1 -15 -4 -15 -6 0 -10 -6 -10
-13 0 -7 -11 -46 -25 -87 -14 -41 -27 -87 -30 -102 -3 -24 -32 -140 -67 -272
-15 -58 -19 -78 -23 -111 -5 -47 -15 -112 -30 -205 -15 -92 -24 -206 -31 -395
-3 -66 -6 -141 -7 -167 -1 -27 2 -50 8 -52 6 -3 6 -5 0 -5 -11 -1 -11 -168 -1
-179 3 -3 1 -11 -5 -19 -8 -9 -8 -13 -1 -13 6 0 10 -8 10 -18 -3 -45 15 -247
29 -327 8 -49 16 -101 18 -115 2 -14 6 -36 9 -50 17 -78 28 -137 30 -165 0
-11 3 -22 6 -25 6 -5 30 -104 32 -130 0 -8 4 -20 9 -26 5 -6 10 -25 11 -43 1
-18 6 -35 10 -37 4 -3 8 -16 8 -29 0 -13 4 -34 9 -47 5 -13 31 -88 56 -168 26
-80 52 -151 57 -157 6 -7 8 -13 5 -13 -3 0 -1 -13 4 -30 6 -16 15 -30 21 -30
5 0 7 -4 4 -8 -5 -9 40 -140 55 -158 5 -6 6 -14 2 -17 -3 -4 -2 -7 4 -7 5 0
10 -6 10 -12 0 -7 17 -48 37 -91 20 -42 36 -82 36 -87 0 -6 5 -10 10 -10 6 0
9 -4 8 -8 -4 -11 124 -266 134 -270 5 -2 8 -12 8 -22 0 -10 4 -21 9 -24 5 -3
23 -34 41 -67 18 -34 43 -80 56 -103 14 -23 27 -49 31 -58 3 -10 9 -18 14 -18
5 0 9 -4 9 -10 0 -9 69 -123 90 -147 5 -7 10 -17 10 -23 0 -5 5 -10 10 -10 6
0 10 -6 10 -13 0 -7 9 -23 20 -35 11 -12 20 -26 20 -32 0 -5 5 -10 10 -10 6 0
10 -6 10 -13 0 -7 11 -25 25 -40 14 -15 23 -27 20 -27 -4 0 0 -7 7 -15 20 -23
31 -37 62 -85 17 -25 35 -49 41 -55 6 -5 24 -28 40 -50 35 -46 71 -89 103
-122 12 -13 22 -27 22 -31 1 -13 59 -72 72 -72 6 0 9 -3 5 -6 -8 -8 32 -52
189 -208 123 -124 189 -186 197 -186 2 0 24 -19 49 -43 60 -56 118 -105 118
-100 0 2 6 -2 13 -9 8 -7 28 -24 46 -38 18 -14 38 -30 44 -36 14 -12 132 -94
156 -109 10 -6 25 -17 34 -25 34 -31 47 -41 47 -35 0 4 7 0 15 -7 31 -28 45
-39 45 -34 0 5 64 -34 87 -54 7 -5 15 -10 18 -10 4 0 26 -13 50 -30 24 -16 48
-30 54 -30 6 0 11 -3 11 -8 0 -4 8 -12 19 -17 124 -66 171 -91 198 -104 18 -8
33 -19 33 -24 0 -4 4 -6 9 -2 5 3 17 -2 25 -11 9 -8 16 -12 16 -8 0 4 8 0 18
-8 9 -8 55 -30 102 -49 47 -18 91 -37 98 -43 11 -8 128 -52 162 -61 8 -2 38
-13 65 -24 58 -23 86 -33 101 -36 7 -2 45 -14 85 -28 154 -53 296 -90 311 -81
4 3 8 1 8 -4 0 -6 15 -12 33 -15 17 -3 52 -10 77 -16 42 -10 59 -13 120 -26
14 -3 43 -8 65 -11 22 -3 48 -11 59 -16 14 -8 17 -7 11 3 -5 8 -4 10 4 5 7 -5
32 -10 57 -12 25 -2 49 -6 53 -9 5 -2 33 -7 62 -10 30 -3 70 -8 89 -10 19 -3
53 -7 75 -10 22 -2 85 -7 140 -10 55 -3 118 -7 140 -10 52 -6 454 -7 480 -2
28 7 140 16 265 22 58 3 114 7 125 9 11 2 45 7 75 10 72 8 111 16 123 23 5 3
33 7 62 8 29 2 58 6 65 10 6 4 14 4 17 1 3 -3 12 -1 19 4 6 6 16 10 20 8 14
-3 174 34 174 41 0 3 10 7 23 7 42 3 67 8 67 14 0 3 9 6 20 7 21 2 191 48 220
60 8 3 21 5 28 4 6 -1 12 3 12 9 0 6 4 9 9 6 5 -3 46 8 92 25 46 17 107 38
134 47 28 9 52 19 55 23 3 3 16 10 30 13 14 4 40 14 58 22 17 8 49 21 70 30
20 9 66 30 102 47 36 17 67 31 70 32 14 3 199 100 221 116 14 10 28 16 31 13
3 -2 11 2 18 11 7 8 18 15 24 15 7 0 21 8 32 18 10 9 32 24 48 32 17 8 66 39
110 67 107 69 116 76 132 91 7 6 17 12 22 12 6 0 24 13 41 29 17 16 31 26 31
23 0 -4 7 2 15 12 8 11 15 17 15 14 0 -7 33 20 83 67 18 16 34 28 37 27 5 -2
75 58 152 131 22 20 43 37 47 37 3 0 44 39 90 85 46 47 86 85 88 85 8 0 53 53
53 62 0 5 3 8 8 6 7 -3 149 136 153 150 6 23 12 31 19 27 5 -3 11 3 15 14 3
11 13 22 21 25 9 3 12 11 8 17 -5 8 -3 9 5 5 8 -5 14 0 18 13 3 12 12 21 20
21 10 0 13 6 9 16 -3 8 -2 12 3 9 6 -3 18 6 28 20 10 14 33 42 50 63 18 20 33
40 33 44 0 4 18 26 40 50 22 24 40 49 40 56 0 6 4 12 9 12 8 0 55 63 96 128
14 22 28 40 45 61 8 10 16 24 18 32 2 8 10 21 18 30 8 8 14 21 14 27 0 7 4 12
8 12 5 0 14 10 20 23 6 12 24 43 39 68 66 110 123 212 123 220 0 5 5 9 12 9 6
0 9 3 5 6 -3 4 7 26 24 50 16 24 28 44 25 44 -3 0 11 27 30 61 18 33 31 65 28
70 -3 5 -1 9 4 9 8 0 53 89 57 110 0 3 15 34 32 70 46 94 157 377 158 405 1 6
11 32 23 59 12 27 20 51 17 54 -2 2 1 14 7 26 7 11 13 24 14 29 1 4 3 10 4 15
1 4 2 11 1 16 -1 4 3 14 9 21 6 7 10 17 8 21 -1 5 5 34 15 64 23 77 48 171 52
195 7 37 14 68 24 99 5 17 13 58 16 91 4 33 11 78 17 100 18 70 20 79 23 120
1 22 4 40 5 40 2 0 4 25 5 56 1 31 4 60 8 65 3 5 8 43 12 84 4 41 8 86 10 98
2 13 5 62 6 108 1 46 4 84 8 84 8 0 6 225 -2 265 -4 17 -9 75 -12 130 -6 108
-13 199 -21 255 -3 19 -7 54 -9 78 -3 23 -8 50 -13 60 -4 9 -7 34 -7 54 0 21
-3 38 -6 38 -3 0 -6 12 -7 28 -2 52 -34 207 -43 210 -5 2 -7 7 -4 12 3 4 0 30
-6 56 -6 27 -12 60 -15 74 -4 24 -45 179 -56 210 -3 8 -10 31 -17 50 -7 19
-14 40 -15 45 -17 63 -50 155 -56 155 -4 0 -7 6 -6 13 1 14 -54 180 -63 187
-3 3 -8 16 -10 30 -1 14 -7 28 -13 31 -5 3 -11 12 -12 20 -2 8 -10 31 -20 51
-9 21 -16 42 -16 48 0 5 -4 10 -10 10 -5 0 -9 3 -8 8 1 4 -5 21 -12 37 -7 17
-13 33 -12 38 1 4 -2 7 -7 7 -7 0 -15 19 -21 50 -1 3 -8 12 -16 21 -8 9 -11
19 -7 22 3 4 2 7 -4 7 -10 0 -26 36 -24 53 1 4 -3 7 -7 7 -4 0 -21 27 -36 60
-16 33 -32 60 -36 60 -8 0 -23 39 -21 53 1 4 -4 7 -9 7 -6 0 -10 7 -10 15 0 8
-4 15 -9 15 -5 0 -13 9 -16 21 -7 20 -43 80 -64 105 -6 7 -7 15 -4 18 4 3 1 6
-5 6 -7 0 -12 9 -12 20 0 11 -5 20 -10 20 -6 0 -16 12 -22 28 -7 15 -21 35
-31 44 -10 9 -17 18 -16 20 5 7 -52 88 -63 88 -6 0 -9 3 -5 6 6 6 -58 104 -77
116 -6 4 -7 8 -2 8 5 0 -3 11 -18 25 -14 13 -26 28 -26 33 0 5 -13 23 -30 40
-16 18 -30 34 -30 37 0 7 -30 44 -67 81 -18 18 -33 37 -33 42 0 5 -9 17 -20
27 -11 10 -20 24 -20 32 0 8 -4 11 -10 8 -5 -3 -10 1 -10 10 0 9 -4 13 -10 10
-5 -3 -10 -2 -10 2 0 9 -65 86 -127 150 -23 24 -40 43 -37 43 2 0 -12 15 -32
33 -21 17 -58 53 -82 79 -24 26 -48 45 -53 42 -5 -3 -8 -2 -7 3 4 12 -28 54
-35 46 -4 -3 -7 -1 -7 5 0 6 -9 13 -19 17 -11 3 -23 15 -26 26 -4 10 -11 19
-16 19 -10 0 -44 28 -101 83 -21 20 -41 37 -44 37 -3 0 -12 6 -19 13 -8 6 -26
21 -41 32 -14 11 -33 27 -42 36 -10 9 -28 22 -42 29 -14 7 -31 21 -38 32 -7
10 -17 18 -22 18 -6 0 -18 7 -27 15 -10 8 -22 16 -28 18 -5 1 -19 11 -31 22
-35 32 -141 105 -153 105 -6 0 -11 5 -11 10 0 6 -4 10 -9 10 -12 0 -103 60
-113 74 -5 7 -8 7 -8 1 0 -7 -3 -7 -8 0 -8 11 -29 24 -109 65 -29 15 -49 30
-46 34 3 3 -1 6 -10 6 -9 0 -38 13 -65 29 -27 16 -65 34 -85 42 -20 7 -34 16
-31 21 3 4 -2 8 -10 8 -9 0 -44 14 -78 30 -34 17 -67 30 -75 30 -7 0 -13 5
-13 12 0 6 -3 9 -6 6 -3 -4 -32 7 -65 23 -33 17 -64 27 -68 24 -5 -3 -11 0
-13 7 -4 10 -23 17 -55 20 -7 1 -13 5 -13 10 0 4 -3 7 -7 6 -5 -1 -21 4 -36
10 -16 7 -33 9 -39 6 -6 -4 -8 -2 -5 3 7 10 -22 24 -53 26 -8 1 -18 5 -21 10
-3 4 -21 11 -40 14 -19 3 -36 8 -39 13 -3 4 -13 6 -22 4 -10 -1 -18 2 -18 7 0
6 -4 8 -10 4 -5 -3 -17 -1 -27 4 -19 10 -94 32 -128 38 -11 2 -27 6 -35 10 -8
3 -22 7 -30 9 -25 5 -74 15 -95 19 -11 2 -21 4 -22 5 -4 3 -14 6 -58 14 -22 4
-53 12 -70 17 -16 5 -50 11 -74 14 -24 3 -48 8 -52 11 -5 3 -37 7 -70 10 -34
2 -70 9 -81 15 -16 9 -19 8 -12 -3 6 -10 5 -11 -7 -2 -8 6 -36 12 -63 13 -26
1 -52 3 -56 6 -4 2 -38 7 -76 10 -38 4 -82 8 -99 11 -41 7 -463 22 -468 18z
m-3932 -2093 c3 -5 2 -12 -3 -15 -5 -3 -9 1 -9 9 0 17 3 19 12 6z"/>
</g>
</svg>
